<svg width="87" height="44" viewBox="0 0 87 44" fill="none" xmlns="http://www.w3.org/2000/svg">
<g id="&#208;&#186;&#208;&#176;&#208;&#187;&#208;&#184;&#208;&#177;&#209;&#128;&#208;&#184; 1" clip-path="url(#clip0_705_83)">
<path id="Vector" d="M21.0192 42.9524C20.5536 42.9646 20.0905 42.8816 19.658 42.7086C19.2256 42.5356 18.833 42.2763 18.5042 41.9464C17.836 41.2744 17.502 40.2722 17.502 38.9283C17.5014 37.8741 17.7089 36.8303 18.1125 35.8564C18.509 34.8822 19.0543 33.9754 19.7291 33.1685C20.3576 32.4111 21.1123 31.768 21.96 31.2678C22.6893 30.8216 23.5243 30.5777 24.3791 30.5613C25.2392 30.5613 25.8267 30.8147 26.1416 31.3292C26.4433 31.7992 26.6057 32.3451 26.61 32.9036C26.6211 33.4662 26.4748 34.0208 26.1877 34.5048C26.0773 34.7144 25.9115 34.8897 25.7084 35.0116C25.5053 35.1335 25.2726 35.1972 25.0357 35.196C24.8575 35.195 24.682 35.1516 24.5238 35.0695C24.3655 34.9874 24.2291 34.8689 24.1257 34.7237C24.5027 34.4819 24.79 34.1231 24.9436 33.7023C25.1612 33.246 25.279 32.7485 25.2891 32.2431C25.3002 32.0388 25.2508 31.8358 25.1471 31.6595C25.0785 31.5841 24.9928 31.5263 24.8973 31.4909C24.8017 31.4555 24.6991 31.4435 24.598 31.456C23.9436 31.4947 23.3249 31.7672 22.8547 32.2239C22.2047 32.7856 21.6429 33.4419 21.1882 34.1707C20.6773 34.9584 20.2561 35.8007 19.9326 36.682C19.6236 37.4745 19.4585 38.3158 19.4449 39.1664C19.4396 39.7943 19.6027 40.4122 19.9172 40.9557C20.2282 41.501 20.8388 41.7736 21.7373 41.7736C22.6255 41.7601 23.496 41.5223 24.2677 41.0824C25.1729 40.5737 25.9761 39.9019 26.6369 39.1011C27.3933 38.2051 27.9895 37.1854 28.3994 36.0868L28.8064 36.4017C28.3404 37.6293 27.6719 38.7701 26.8289 39.7769C26.0546 40.7165 25.1183 41.5098 24.0642 42.1192C23.1385 42.6559 22.0893 42.9431 21.0192 42.9524Z" fill="#A260A3"/>
<path id="Vector_2" d="M29.9738 42.196C29.0702 42.196 28.4302 41.9195 28.0539 41.3665C27.6614 40.7648 27.4631 40.0572 27.4856 39.3391C27.492 38.6567 27.5981 37.9788 27.8005 37.327C28.0053 36.6493 28.2847 35.9963 28.6337 35.3802C28.9341 34.8277 29.3232 34.3282 29.7857 33.9019C30.1346 33.5589 30.5985 33.3577 31.0874 33.3374C31.199 33.3382 31.31 33.3537 31.4176 33.3835C31.5328 33.4181 31.6442 33.4526 31.7478 33.4949C31.4794 33.7694 31.2518 34.081 31.072 34.4203C30.7903 34.9142 30.5439 35.4275 30.3348 35.9562C30.109 36.5155 29.9154 37.0873 29.755 37.6688C29.6119 38.1387 29.5319 38.6255 29.5169 39.1164C29.478 39.5924 29.588 40.0688 29.8318 40.4795C29.9221 40.6128 30.0441 40.7215 30.1869 40.7959C30.3297 40.8703 30.4887 40.908 30.6496 40.9058C31.2354 40.845 31.7861 40.5973 32.2201 40.1992C32.8849 39.668 33.4854 39.061 34.0095 38.3907C33.3994 37.876 32.9292 37.2156 32.6425 36.4708C32.3244 35.7092 32.16 34.8923 32.1587 34.067C32.1534 33.401 32.2759 32.7401 32.5196 32.1202C32.7332 31.5483 33.0966 31.0444 33.5718 30.6611C34.0447 30.2893 34.633 30.095 35.2344 30.112C36.0945 30.112 36.6705 30.3424 36.9623 30.8032C37.283 31.3267 37.4432 31.9328 37.4231 32.5464C37.3975 33.4812 37.1942 34.4025 36.8241 35.2612C36.4215 36.2686 35.9172 37.2323 35.3189 38.1372C35.6833 38.3431 36.0946 38.4516 36.5131 38.4521C36.8976 38.4427 37.2784 38.374 37.642 38.2486C38.0962 38.0915 38.5169 37.8506 38.8822 37.5382C39.3153 37.1744 39.655 36.7123 39.8729 36.1904L40.2569 36.5015C39.927 37.3841 39.2996 38.1242 38.4829 38.5942C37.816 38.9745 37.0655 39.1842 36.298 39.2047C36.0402 39.204 35.783 39.1783 35.5301 39.1279C35.2811 39.0765 35.0389 38.9966 34.8082 38.8898C34.1441 39.7836 33.3553 40.5776 32.4659 41.2475C31.7618 41.8286 30.8861 42.1619 29.9738 42.196ZM34.5816 37.5882C35.1001 36.8242 35.5376 36.0083 35.8872 35.1537C36.214 34.3936 36.39 33.5772 36.4056 32.75C36.4389 32.2884 36.346 31.8265 36.1368 31.4137C36.0744 31.288 35.9788 31.1819 35.8603 31.1068C35.7418 31.0316 35.605 30.9904 35.4648 30.9875C35.0424 30.9875 34.6162 31.2947 34.1746 31.9014C33.7143 32.5792 33.4829 33.3865 33.5142 34.2053C33.5156 34.828 33.6061 35.4474 33.7829 36.0445C33.9403 36.6077 34.2152 37.1311 34.5893 37.5805L34.5816 37.5882Z" fill="#A260A3"/>
<path id="Vector_3" d="M41.881 42.146C40.9773 42.146 40.3374 41.8376 39.9611 41.2206C39.5541 40.5228 39.3531 39.724 39.3813 38.9167C39.4127 37.7043 39.6025 36.5012 39.9457 35.338C40.3577 33.8534 40.8564 32.3944 41.4394 30.9683C42.0563 29.4323 42.7322 27.9399 43.4668 26.491C44.2015 25.0421 44.9337 23.7174 45.6632 22.5168C46.2613 21.5117 46.9393 20.5563 47.6907 19.6599C48.3089 18.9457 48.7965 18.5925 49.1536 18.5925C49.2742 18.5973 49.391 18.6358 49.4908 18.7037C49.5906 18.7716 49.6694 18.8661 49.7181 18.9765C49.8767 19.2723 49.993 19.589 50.0637 19.9172C50.1427 20.2417 50.1852 20.574 50.1904 20.9079C50.1558 21.6631 50.0123 22.4093 49.7642 23.1235C49.4308 24.1639 49.0319 25.1822 48.57 26.1723C48.0306 27.3373 47.4228 28.4695 46.7499 29.5629C46.0478 30.702 45.2785 31.7983 44.446 32.8459C43.6713 33.8338 42.7919 34.735 41.8234 35.5338C41.6967 36.0983 41.6007 36.6474 41.5239 37.1811C41.4531 37.69 41.4172 38.2032 41.4164 38.717C41.3769 39.3444 41.4958 39.9715 41.762 40.541C41.8614 40.7276 42.0114 40.8824 42.1947 40.9876C42.3781 41.0929 42.5874 41.1444 42.7987 41.1361C43.4364 41.1026 44.0376 40.8281 44.4806 40.3682C45.0833 39.8045 45.6111 39.1657 46.051 38.4675C46.5374 37.7117 46.9625 36.9181 47.322 36.0944L47.7943 36.3479C47.1092 37.8899 46.1867 39.3151 45.0604 40.5717C44.0646 41.6212 43.0048 42.146 41.881 42.146ZM42.0999 34.4663C42.8767 33.6801 43.5906 32.834 44.2348 31.9359C44.9247 30.9797 45.5655 29.989 46.1547 28.9677C46.7537 27.9425 47.2836 26.9441 47.7444 25.9842C48.152 25.1424 48.5085 24.2769 48.8119 23.3923C49.0256 22.8215 49.155 22.2225 49.1959 21.6144C49.2118 21.4737 49.1837 21.3314 49.1152 21.2074C49.0653 21.146 49.0193 21.1114 48.977 21.1114C48.8081 21.1114 48.5201 21.3802 48.1131 21.9139C47.5979 22.6048 47.1198 23.3226 46.6808 24.0642C46.1406 24.9653 45.5864 25.9893 45.0181 27.1361C44.4498 28.2829 43.9097 29.4874 43.3977 30.7494C42.9028 31.9657 42.4696 33.2063 42.0999 34.4663Z" fill="#A260A3"/>
<path id="Vector_4" d="M48.9425 42.0078C48.6 42.0333 48.2563 41.977 47.9398 41.8434C47.6233 41.7099 47.3432 41.503 47.1224 41.2398C46.7156 40.7029 46.5042 40.0432 46.5234 39.3698C46.5437 38.7536 46.6339 38.1417 46.7922 37.5459C46.9857 36.7657 47.2216 35.9966 47.4987 35.242C47.7808 34.4581 48.1223 33.6969 48.5201 32.965C48.8531 32.3307 49.2703 31.7442 49.7604 31.2217C49.9195 31.0286 50.1156 30.8694 50.3371 30.7533C50.5587 30.6372 50.8013 30.5667 51.0506 30.5459C51.2276 30.5419 51.4 30.6034 51.5344 30.7187C51.606 30.7837 51.6619 30.8641 51.6978 30.954C51.7338 31.0438 51.7488 31.1406 51.7417 31.2371C51.6712 31.6762 51.5047 32.0945 51.2541 32.462C50.9277 33.0264 50.5476 33.6754 50.1021 34.4088C49.6583 35.1453 49.2731 35.9156 48.9502 36.7127C48.6406 37.442 48.475 38.2243 48.4625 39.0166C48.4625 39.7845 48.5892 40.2722 48.8465 40.5256C49.0039 40.6622 49.1866 40.7663 49.3843 40.8322C49.5819 40.8981 49.7906 40.9244 49.9985 40.9096C50.7101 40.9096 51.4691 40.5538 52.2755 39.8421C53.0818 39.1305 53.9356 37.8838 54.8366 36.1021L55.117 36.417C54.6406 38.0141 53.7331 39.449 52.4944 40.564C51.5233 41.4579 50.2618 41.9707 48.9425 42.0078ZM52.7132 27.6199C52.3972 27.6245 52.0866 27.5378 51.8185 27.3703C51.6934 27.2866 51.5923 27.1718 51.5249 27.0372C51.4576 26.9025 51.4265 26.7527 51.4346 26.6024C51.45 26.3598 51.5291 26.1256 51.6639 25.9233C51.7988 25.7211 51.9845 25.558 52.2025 25.4504C52.6572 25.144 53.1903 24.9748 53.7385 24.9628C54.0123 24.9481 54.283 25.0266 54.5064 25.1855C54.6106 25.2822 54.6903 25.4022 54.739 25.5357C54.7877 25.6692 54.8041 25.8124 54.7867 25.9534C54.7716 26.1813 54.7059 26.403 54.5943 26.6023C54.4827 26.8015 54.328 26.9734 54.1416 27.1054C53.7467 27.4471 53.2392 27.6305 52.7171 27.6199H52.7132Z" fill="#A260A3"/>
<path id="Vector_5" d="M57.179 43.4861C56.0885 43.4861 55.277 43.1303 54.7446 42.4187C54.1699 41.5677 53.8882 40.5527 53.9421 39.5273C53.9717 38.274 54.1508 37.0288 54.4758 35.818C54.8628 34.3012 55.3359 32.8076 55.8927 31.3446C56.4763 29.7805 57.1304 28.2561 57.8549 26.7713C58.5793 25.2866 59.3076 23.9414 60.0397 22.7357C60.6407 21.7103 61.3348 20.7424 62.1132 19.8443C62.7634 19.1224 63.2972 18.7614 63.7144 18.7614C64.0715 18.7614 64.325 18.9803 64.4824 19.4219C64.6374 19.8438 64.718 20.2895 64.7205 20.739C64.6936 21.4664 64.5644 22.1864 64.3365 22.8777C64.0499 23.8002 63.6917 24.6989 63.2652 25.5656C62.7937 26.5367 62.2589 27.4757 61.664 28.3764C61.0779 29.2704 60.4218 30.1166 59.7018 30.9068C59.0744 31.609 58.3488 32.2168 57.5477 32.7116C57.3333 33.1764 57.1499 33.6549 56.9986 34.1438C56.7325 34.9578 56.512 35.7859 56.3381 36.6244C56.144 37.5176 56.0449 38.4289 56.0424 39.343C56.0147 40.069 56.1457 40.7924 56.4264 41.4626C56.5356 41.7226 56.7227 41.9424 56.9621 42.0917C57.2014 42.2409 57.4811 42.3122 57.7627 42.2958C58.455 42.2634 59.1174 42.0044 59.6481 41.5585C60.3078 41.0511 60.8445 40.4014 61.2185 39.6578C60.4663 39.2828 59.8589 38.67 59.4906 37.9145C59.1247 37.2012 58.9301 36.4123 58.9223 35.6106C58.8781 34.7349 59.1584 33.8736 59.7095 33.1915C59.9302 32.9101 60.2116 32.6821 60.5328 32.5245C60.8539 32.3669 61.2064 32.2839 61.5641 32.2815C61.8472 32.2739 62.1277 32.3373 62.38 32.4661C62.6322 32.5949 62.8481 32.7849 63.0079 33.0188C63.4057 33.6637 63.5923 34.4168 63.5417 35.1729C63.5395 35.8765 63.4557 36.5775 63.2921 37.2618C63.1211 37.9864 62.8632 38.6878 62.5241 39.3506C62.6278 39.3698 62.7391 39.3852 62.8543 39.3967C63.3155 39.4408 63.7809 39.3896 64.2215 39.2463C64.6621 39.103 65.0685 38.8705 65.4155 38.5635C66.1018 37.9507 66.6761 37.223 67.1127 36.4132C67.5927 35.5495 68.0073 34.651 68.353 33.7253C68.6985 32.796 68.9942 31.9705 69.2476 31.2601C69.1642 31.1574 69.0909 31.0468 69.0288 30.9299C68.9562 30.778 68.9232 30.6103 68.9328 30.4422C68.9268 29.9144 69.1107 29.4019 69.4511 28.9984C69.7967 28.5799 70.0847 28.3687 70.3151 28.3687C70.4841 28.3687 70.5877 28.4762 70.63 28.6836C70.6608 28.8175 70.6814 28.9536 70.6914 29.0906C70.6818 29.3157 70.6228 29.5359 70.5186 29.7357C70.4172 29.9255 70.3583 30.1352 70.3458 30.3501C70.3632 30.5007 70.4166 30.6449 70.5015 30.7706C70.5864 30.8962 70.7002 30.9996 70.8335 31.072L71.9509 31.8706C72.3787 32.188 72.7545 32.5702 73.0644 33.0034C73.4037 33.497 73.5747 34.0868 73.5521 34.6852C73.549 35.3378 73.4186 35.9834 73.1681 36.586C72.9032 37.2234 72.6421 37.8377 72.4002 38.4214C72.1653 38.9128 72.0346 39.4475 72.0162 39.9919C71.9986 40.1266 72.015 40.2637 72.064 40.3904C72.113 40.5172 72.1929 40.6297 72.2965 40.7176C72.4934 40.8439 72.7231 40.9093 72.9569 40.9058C73.5017 40.8874 74.0318 40.7244 74.4928 40.4335C75.0493 40.0962 75.5647 39.6954 76.0288 39.2393C76.5214 38.7659 76.9735 38.2522 77.3804 37.7033C77.735 37.2457 78.0305 36.7451 78.2597 36.2135L78.6706 36.5245C78.2408 37.4562 77.6909 38.3275 77.0348 39.1164C76.3827 39.9317 75.605 40.6381 74.7309 41.2091C73.9541 41.7289 73.0429 42.0117 72.1083 42.0232C71.4984 42.0598 70.8973 41.8636 70.4265 41.4741C70.2161 41.28 70.0517 41.0414 69.9454 40.7757C69.8391 40.5099 69.7935 40.2238 69.8121 39.9381C69.8264 39.2747 69.9767 38.6212 70.2537 38.0182C70.5455 37.3398 70.8335 36.6538 71.1176 35.9601C71.3781 35.3645 71.5215 34.7244 71.54 34.0747C71.5607 33.8034 71.5192 33.531 71.4187 33.2782C71.3182 33.0253 71.1614 32.7987 70.9602 32.6156C70.5826 32.2977 70.1891 31.9991 69.7814 31.7209C69.5254 32.5145 69.2272 33.3938 68.8867 34.3589C68.5453 35.3144 68.1133 36.235 67.5965 37.1082C67.1178 37.9378 66.4843 38.6677 65.7303 39.2585C64.9718 39.8335 64.04 40.1328 63.0886 40.1071C62.9421 40.1064 62.7959 40.0961 62.6508 40.0764L62.1785 40.0149C61.6338 40.954 60.9265 41.7887 60.0896 42.4801C59.2703 43.1514 58.2381 43.5082 57.179 43.4861ZM57.9009 31.4828C58.542 30.9693 59.1171 30.3786 59.6135 29.7242C60.1799 28.9991 60.6993 28.2385 61.1686 27.4472C61.6525 26.6408 62.0787 25.8498 62.4588 25.0741C62.7968 24.3923 63.0905 23.6895 63.3381 22.9699C63.5102 22.5164 63.6162 22.0405 63.653 21.5568C63.6603 21.4871 63.6483 21.4167 63.6184 21.3533C63.6096 21.337 63.5961 21.3235 63.5798 21.3147C63.5634 21.3058 63.5448 21.3019 63.5263 21.3034C63.3573 21.3034 63.0386 21.6029 62.5663 22.2019C61.9887 22.9597 61.4639 23.7565 60.9958 24.5865C60.4199 25.5848 59.849 26.6856 59.2833 27.8887C58.7341 29.0509 58.272 30.2522 57.9009 31.4828ZM61.5449 39.0243C61.7795 38.5338 61.9586 38.0186 62.0787 37.4883C62.2067 36.9486 62.2712 36.3957 62.2707 35.841C62.2972 35.2502 62.195 34.6606 61.9712 34.1131C61.7715 33.6946 61.5257 33.4834 61.2339 33.4834C60.9421 33.4834 60.6387 33.6984 60.4007 34.1285C60.1432 34.6273 60.0189 35.1841 60.0397 35.745C60.0485 36.3572 60.1655 36.963 60.3853 37.5344C60.5953 38.1462 61.0034 38.6705 61.5449 39.0243Z" fill="#A260A3"/>
<path id="Vector_6" d="M79.8302 42.0078C79.4876 42.034 79.1437 41.9779 78.8271 41.8443C78.5105 41.7108 78.2305 41.5035 78.0101 41.2399C77.6033 40.703 77.3919 40.0432 77.4111 39.3698C77.4294 38.7535 77.5197 38.1414 77.6799 37.5459C77.8716 36.7652 78.1075 35.996 78.3864 35.242C78.6685 34.4581 79.01 33.6969 79.4078 32.965C79.7395 32.3298 80.1568 31.7433 80.6481 31.2217C80.8063 31.0286 81.0017 30.8693 81.2226 30.7532C81.4436 30.6371 81.6857 30.5666 81.9344 30.5459C82.1126 30.542 82.2861 30.6035 82.4221 30.7187C82.4933 30.7839 82.5486 30.8645 82.5839 30.9543C82.6191 31.0442 82.6334 31.1409 82.6256 31.2371C82.557 31.6761 82.3917 32.0945 82.1418 32.462C81.8141 33.0277 81.4301 33.6767 80.9898 34.4088C80.546 35.1454 80.1609 35.9157 79.8379 36.7127C79.53 37.4426 79.3645 38.2246 79.3502 39.0166C79.3502 39.7692 79.4782 40.2722 79.7342 40.5256C79.8915 40.6624 80.0742 40.7667 80.2719 40.8325C80.4696 40.8984 80.6783 40.9246 80.8862 40.9096C81.6004 40.9096 82.3568 40.5525 83.167 39.8421C83.9772 39.1318 84.8258 37.8838 85.7243 36.1021L86.0085 36.417C85.5321 38.0141 84.6247 39.449 83.3859 40.564C82.4135 41.4582 81.1507 41.9709 79.8302 42.0078ZM83.6009 27.62C83.2849 27.6245 82.9743 27.5378 82.7062 27.3704C82.5811 27.2866 82.4799 27.1718 82.4126 27.0372C82.3453 26.9025 82.3142 26.7527 82.3223 26.6024C82.3369 26.3596 82.4157 26.1251 82.5506 25.9227C82.6856 25.7203 82.8717 25.5573 83.0902 25.4504C83.5449 25.1441 84.078 24.9748 84.6262 24.9628C84.9001 24.9466 85.1713 25.0252 85.3941 25.1855C85.4987 25.282 85.5789 25.4019 85.6283 25.5354C85.6777 25.6689 85.6948 25.8121 85.6783 25.9535C85.6632 26.1813 85.5974 26.403 85.4858 26.6023C85.3742 26.8016 85.2196 26.9734 85.0332 27.1054C84.6359 27.4483 84.1256 27.6317 83.6009 27.62Z" fill="#A260A3"/>
<path id="Vector_7" d="M17.4213 18.3116H4.41964L1.04059 25.9913H0L11.4043 -0.012085H12.8481L24.2178 26.0182H20.762L17.4213 18.3116ZM17.0719 17.5705L10.9282 3.4169L4.71532 17.5705H17.0719Z" fill="#A260A3"/>
<path id="Vector_8" d="M50.444 26.0187H46.6579C45.8664 25.4516 45.2106 24.7159 44.738 23.8646L40.7983 16.9529C40.2649 16.051 39.4767 15.3269 38.5328 14.8717H32.2086V26.0072H28.8987V0H39.1165C44.4923 0 48.551 3.15635 48.551 7.39168C48.551 11.2546 45.3178 14.192 40.7523 14.7488C42.5339 15.2672 43.9816 16.1964 44.7265 17.4981L48.0671 23.1811C48.6593 24.278 49.4679 25.2433 50.444 26.0187ZM32.2086 14.1152H38.4829C42.461 14.1152 45.0951 11.4773 45.0951 7.43008C45.0951 3.3829 42.461 0.744929 38.4829 0.744929H32.2086V14.1152Z" fill="#A260A3"/>
<path id="Vector_9" d="M71.6937 0.744929H62.9657V26.0187H59.6596V0.744929H50.8625V0H71.7013L71.6937 0.744929Z" fill="#A260A3"/>
<path id="Vector_10" d="M20.2512 42.1844C19.7856 42.1966 19.3224 42.1136 18.89 41.9406C18.4575 41.7676 18.0649 41.5083 17.7361 41.1784C17.068 40.5064 16.7339 39.5042 16.7339 38.1603C16.7334 37.1061 16.9408 36.0622 17.3444 35.0884C17.7409 34.1142 18.2863 33.2074 18.961 32.4005C19.5895 31.6431 20.3443 31 21.1919 30.4998C21.9212 30.0535 22.7562 29.8097 23.611 29.7933C24.4712 29.7933 25.0587 30.0467 25.3735 30.5612C25.6752 31.0312 25.8377 31.5771 25.842 32.1356C25.853 32.6982 25.7067 33.2528 25.4196 33.7368C25.3092 33.9464 25.1435 34.1217 24.9403 34.2436C24.7372 34.3654 24.5045 34.4292 24.2676 34.428C24.0894 34.427 23.9139 34.3836 23.7557 34.3015C23.5975 34.2194 23.461 34.1009 23.3576 33.9557C23.7347 33.7139 24.022 33.3551 24.1755 32.9343C24.3931 32.478 24.5109 31.9805 24.5211 31.4751C24.5321 31.2708 24.4827 31.0678 24.379 30.8915C24.3104 30.8161 24.2247 30.7583 24.1292 30.7229C24.0337 30.6875 23.931 30.6755 23.8299 30.688C23.1755 30.7267 22.5569 30.9992 22.0866 31.4559C21.4366 32.0176 20.8748 32.6739 20.4201 33.4027C19.9092 34.1904 19.4881 35.0327 19.1645 35.914C18.8555 36.7065 18.6904 37.5478 18.6768 38.3983C18.6715 39.0263 18.8346 39.6442 19.1491 40.1877C19.4602 40.733 20.0707 41.0056 20.9692 41.0056C21.8575 40.9921 22.7279 40.7543 23.4997 40.3144C24.4048 39.8057 25.208 39.1339 25.8689 38.3331C26.6252 37.4371 27.2214 36.4174 27.6313 35.3188L28.0384 35.6337C27.5723 36.8613 26.9039 38.0021 26.0609 39.0089C25.2866 39.9485 24.3502 40.7418 23.2962 41.3512C22.3705 41.8879 21.3212 42.1751 20.2512 42.1844Z" fill="#EDC454"/>
<path id="Vector_11" d="M29.2058 41.428C28.3021 41.428 27.6622 41.1515 27.2858 40.5986C26.8934 39.9969 26.695 39.2892 26.7175 38.5712C26.7239 37.8887 26.83 37.2109 27.0324 36.5591C27.2372 35.8813 27.5167 35.2284 27.8657 34.6123C28.166 34.0597 28.5552 33.5603 29.0176 33.134C29.3665 32.791 29.8304 32.5898 30.3193 32.5695C30.4309 32.5703 30.542 32.5857 30.6495 32.6156C30.7647 32.6501 30.8761 32.6847 30.9798 32.7269C30.7113 33.0015 30.4837 33.3131 30.304 33.6523C30.0222 34.1462 29.7758 34.6595 29.5667 35.1883C29.3409 35.7476 29.1473 36.3194 28.9869 36.9008C28.8439 37.3707 28.7638 37.8575 28.7488 38.3485C28.7099 38.8245 28.82 39.3008 29.0637 39.7116C29.154 39.8449 29.2761 39.9536 29.4188 40.028C29.5616 40.1024 29.7206 40.1401 29.8816 40.1378C30.4674 40.0771 31.018 39.8294 31.4521 39.4313C32.1168 38.9001 32.7173 38.2931 33.2414 37.6227C32.6313 37.1081 32.1611 36.4477 31.8744 35.7028C31.5564 34.9413 31.392 34.1244 31.3906 33.2991C31.3853 32.633 31.5079 31.9722 31.7516 31.3523C31.9652 30.7804 32.3286 30.2764 32.8037 29.8931C33.2767 29.5213 33.865 29.327 34.4663 29.344C35.3265 29.344 35.9024 29.5744 36.1943 30.0352C36.5149 30.5588 36.6751 31.1649 36.655 31.7785C36.6294 32.7132 36.4261 33.6346 36.056 34.4933C35.6535 35.5007 35.1491 36.4643 34.5508 37.3693C34.9152 37.5752 35.3265 37.6836 35.745 37.6842C36.1295 37.6747 36.5103 37.6061 36.8739 37.4807C37.3282 37.3236 37.7489 37.0826 38.1142 36.7703C38.5472 36.4065 38.8869 35.9444 39.1049 35.4225L39.4888 35.7335C39.1589 36.6162 38.5316 37.3562 37.7148 37.8262C37.0479 38.2066 36.2974 38.4163 35.53 38.4368C35.2721 38.4361 35.0149 38.4104 34.762 38.36C34.5131 38.3085 34.2708 38.2287 34.0401 38.1219C33.376 39.0157 32.5872 39.8096 31.6978 40.4796C30.9938 41.0607 30.118 41.394 29.2058 41.428ZM33.8136 36.8202C34.332 36.0562 34.7696 35.2403 35.1191 34.3858C35.4459 33.6256 35.622 32.8093 35.6375 31.982C35.6708 31.5205 35.5779 31.0585 35.3687 30.6457C35.3063 30.5201 35.2107 30.414 35.0922 30.3388C34.9738 30.2637 34.837 30.2224 34.6967 30.2195C34.2743 30.2195 33.8481 30.5267 33.4065 31.1334C32.9462 31.8112 32.7148 32.6185 32.7461 33.4373C32.7475 34.0601 32.838 34.6795 33.0149 35.2766C33.1723 35.8397 33.4471 36.3632 33.8212 36.8125L33.8136 36.8202Z" fill="#EDC454"/>
<path id="Vector_12" d="M41.1132 41.3781C40.2095 41.3781 39.5695 41.0696 39.1932 40.4527C38.7863 39.7549 38.5853 38.9561 38.6134 38.1488C38.6449 36.9364 38.8347 35.7333 39.1779 34.57C39.5899 33.0855 40.0886 31.6264 40.6716 30.2003C41.2885 28.6644 41.9643 27.172 42.699 25.7231C43.4337 24.2742 44.1658 22.9494 44.8954 21.7488C45.4935 20.7437 46.1715 19.7884 46.9228 18.892C47.541 18.1778 48.0287 17.8245 48.3858 17.8245C48.5064 17.8293 48.6232 17.8679 48.723 17.9357C48.8228 18.0036 48.9015 18.0981 48.9503 18.2085C49.1089 18.5044 49.2252 18.8211 49.2959 19.1493C49.3748 19.4737 49.4174 19.806 49.4226 20.1399C49.388 20.8952 49.2444 21.6414 48.9964 22.3555C48.663 23.396 48.2641 24.4143 47.8022 25.4044C47.2628 26.5694 46.655 27.7016 45.9821 28.7949C45.2799 29.934 44.5106 31.0303 43.6782 32.078C42.9034 33.0659 42.0241 33.9671 41.0556 34.7659C40.9289 35.3303 40.8329 35.8794 40.7561 36.4132C40.6853 36.9221 40.6494 37.4353 40.6485 37.9491C40.6091 38.5764 40.728 39.2036 40.9941 39.773C41.0936 39.9596 41.2435 40.1144 41.4269 40.2197C41.6103 40.325 41.8196 40.3764 42.0309 40.3682C42.6686 40.3346 43.2697 40.0601 43.7127 39.6002C44.3155 39.0366 44.8433 38.3978 45.2832 37.6995C45.7696 36.9437 46.1947 36.1502 46.5542 35.3265L47.0265 35.5799C46.3413 37.122 45.4188 38.5472 44.2926 39.8037C43.2968 40.8533 42.237 41.3781 41.1132 41.3781ZM41.332 33.6984C42.1089 32.9122 42.8228 32.0661 43.467 31.168C44.1568 30.2117 44.7976 29.2211 45.3869 28.1998C45.9859 27.1745 46.5158 26.1762 46.9766 25.2162C47.3842 24.3745 47.7407 23.509 48.0441 22.6243C48.2578 22.0535 48.3871 21.4546 48.428 20.8465C48.444 20.7057 48.4158 20.5635 48.3474 20.4395C48.2975 20.378 48.2514 20.3435 48.2092 20.3435C48.0402 20.3435 47.7523 20.6122 47.3452 21.146C46.8301 21.8369 46.352 22.5547 45.913 23.2963C45.3703 24.1974 44.8161 25.2213 44.2503 26.3682C43.6846 27.515 43.1444 28.7194 42.6299 29.9814C42.1349 31.1978 41.7018 32.4383 41.332 33.6984Z" fill="#EDC454"/>
<path id="Vector_13" d="M48.1747 41.2398C47.8321 41.2653 47.4885 41.209 47.172 41.0755C46.8555 40.9419 46.5753 40.735 46.3546 40.4719C45.9477 39.935 45.7364 39.2752 45.7556 38.6019C45.7759 37.9857 45.866 37.3738 46.0244 36.7779C46.2179 35.9977 46.4537 35.2286 46.7309 34.474C47.013 33.6902 47.3545 32.9289 47.7523 32.197C48.0853 31.5627 48.5025 30.9763 48.9926 30.4537C49.1516 30.2607 49.3477 30.1014 49.5693 29.9853C49.7909 29.8693 50.0335 29.7987 50.2828 29.7779C50.4598 29.7739 50.6321 29.8354 50.7666 29.9507C50.8382 30.0157 50.8941 30.0962 50.93 30.186C50.9659 30.2758 50.981 30.3726 50.9739 30.4691C50.9034 30.9083 50.7369 31.3265 50.4863 31.694C50.1599 32.2584 49.7797 32.9074 49.3343 33.6408C48.8904 34.3773 48.5053 35.1477 48.1824 35.9447C47.8728 36.674 47.7072 37.4564 47.6947 38.2486C47.6947 39.0166 47.8214 39.5042 48.0787 39.7576C48.2361 39.8942 48.4188 39.9984 48.6165 40.0643C48.8141 40.1301 49.0228 40.1564 49.2306 40.1416C49.9423 40.1416 50.7013 39.7858 51.5077 39.0742C52.314 38.3625 53.1677 37.1158 54.0688 35.3342L54.3491 35.649C53.8728 37.2462 52.9653 38.6811 51.7265 39.796C50.7555 40.6899 49.494 41.2027 48.1747 41.2398ZM51.9454 26.852C51.6294 26.8565 51.3187 26.7699 51.0507 26.6024C50.9256 26.5187 50.8244 26.4038 50.7571 26.2692C50.6898 26.1346 50.6586 25.9847 50.6667 25.8344C50.6822 25.5918 50.7613 25.3576 50.8961 25.1554C51.0309 24.9531 51.2167 24.79 51.4347 24.6824C51.8894 24.3761 52.4225 24.2068 52.9706 24.1948C53.2444 24.1801 53.5151 24.2586 53.7386 24.4175C53.8427 24.5142 53.9224 24.6343 53.9712 24.7678C54.0199 24.9013 54.0362 25.0444 54.0189 25.1855C54.0038 25.4134 53.9381 25.635 53.8265 25.8343C53.7149 26.0336 53.5602 26.2054 53.3738 26.3374C52.9789 26.6792 52.4714 26.8625 51.9493 26.852H51.9454Z" fill="#EDC454"/>
<path id="Vector_14" d="M56.411 42.7182C55.3205 42.7182 54.509 42.3623 53.9765 41.6507C53.4018 40.7998 53.1201 39.7847 53.174 38.7593C53.2036 37.506 53.3828 36.2608 53.7077 35.05C54.0947 33.5332 54.5678 32.0396 55.1246 30.5766C55.7083 29.0125 56.3623 27.4881 57.0868 26.0034C57.8112 24.5186 58.5395 23.1734 59.2717 21.9677C59.8727 20.9423 60.5668 19.9745 61.3452 19.0763C61.9954 18.3544 62.5291 17.9935 62.9464 17.9935C63.3035 17.9935 63.5569 18.2123 63.7143 18.6539C63.8693 19.0758 63.9499 19.5215 63.9524 19.971C63.9256 20.6984 63.7963 21.4184 63.5684 22.1098C63.2818 23.0322 62.9236 23.9309 62.4971 24.7977C62.0257 25.7687 61.4908 26.7077 60.8959 27.6084C60.3098 28.5025 59.6537 29.3486 58.9338 30.1389C58.3063 30.841 57.5808 31.4489 56.7796 31.9436C56.5653 32.4084 56.3819 32.8869 56.2305 33.3759C55.9644 34.1898 55.7439 35.0179 55.5701 35.8564C55.376 36.7496 55.2768 37.6609 55.2744 38.575C55.2466 39.301 55.3776 40.0244 55.6584 40.6946C55.7675 40.9546 55.9547 41.1744 56.194 41.3237C56.4333 41.4729 56.713 41.5442 56.9946 41.5278C57.6869 41.4955 58.3494 41.2364 58.88 40.7906C59.5397 40.2831 60.0765 39.6334 60.4505 38.8898C59.6983 38.5149 59.0909 37.9021 58.7225 37.1466C58.3566 36.4332 58.162 35.6444 58.1543 34.8427C58.1101 33.9669 58.3903 33.1056 58.9414 32.4236C59.1622 32.1421 59.4436 31.9141 59.7647 31.7565C60.0858 31.5989 60.4384 31.5159 60.7961 31.5135C61.0792 31.5059 61.3597 31.5694 61.6119 31.6982C61.8641 31.827 62.08 32.017 62.2398 32.2508C62.6376 32.8958 62.8242 33.6488 62.7736 34.4049C62.7714 35.1085 62.6876 35.8095 62.524 36.4938C62.353 37.2185 62.0951 37.9198 61.756 38.5827C61.8597 38.6019 61.971 38.6172 62.0862 38.6287C62.5475 38.6729 63.0128 38.6217 63.4534 38.4783C63.894 38.335 64.3005 38.1026 64.6474 37.7955C65.3337 37.1827 65.908 36.455 66.3446 35.6452C66.8247 34.7815 67.2392 33.883 67.5849 32.9573C67.9305 32.0281 68.2261 31.2025 68.4796 30.4921C68.3961 30.3894 68.3228 30.2788 68.2607 30.1619C68.1881 30.01 68.1551 29.8423 68.1647 29.6742C68.1587 29.1464 68.3427 28.634 68.6831 28.2305C69.0287 27.8119 69.3166 27.6007 69.547 27.6007C69.716 27.6007 69.8197 27.7083 69.8619 27.9156C69.8928 28.0495 69.9133 28.1856 69.9234 28.3226C69.9138 28.5477 69.8548 28.768 69.7506 28.9677C69.6491 29.1576 69.5902 29.3672 69.5778 29.5821C69.5951 29.7327 69.6485 29.877 69.7334 30.0026C69.8183 30.1283 69.9322 30.2316 70.0654 30.304L71.1828 31.1027C71.6107 31.42 71.9864 31.8022 72.2964 32.2354C72.6356 32.729 72.8066 33.3188 72.784 33.9173C72.7809 34.5698 72.6505 35.2154 72.4001 35.818C72.1351 36.4554 71.874 37.0698 71.6321 37.6534C71.3972 38.1449 71.2665 38.6796 71.2481 39.2239C71.2305 39.3587 71.247 39.4957 71.2959 39.6224C71.3449 39.7492 71.4248 39.8617 71.5284 39.9496C71.7253 40.0759 71.955 40.1413 72.1888 40.1378C72.7337 40.1194 73.2638 39.9564 73.7248 39.6655C74.2812 39.3282 74.7966 38.9274 75.2607 38.4713C75.7533 37.998 76.2055 37.4842 76.6123 36.9354C76.967 36.4777 77.2624 35.9771 77.4917 35.4455L77.9025 35.7565C77.4727 36.6882 76.9228 37.5596 76.2668 38.3484C75.6146 39.1637 74.8369 39.8701 73.9629 40.4411C73.186 40.9609 72.2749 41.2437 71.3403 41.2552C70.7303 41.2919 70.1292 41.0956 69.6584 40.7061C69.448 40.5121 69.2836 40.2734 69.1773 40.0077C69.071 39.7419 69.0255 39.4558 69.044 39.1702C69.0583 38.5067 69.2086 37.8533 69.4856 37.2502C69.7774 36.5719 70.0654 35.8858 70.3496 35.1921C70.61 34.5966 70.7534 33.9565 70.7719 33.3067C70.7926 33.0354 70.7511 32.763 70.6506 32.5102C70.5502 32.2573 70.3934 32.0307 70.1922 31.8476C69.8145 31.5297 69.4211 31.2311 69.0133 30.9529C68.7573 31.7465 68.4591 32.6258 68.1186 33.5909C67.7773 34.5464 67.3452 35.467 66.8285 36.3402C66.3497 37.1698 65.7162 37.8998 64.9623 38.4905C64.2038 39.0655 63.272 39.3649 62.3205 39.3391C62.1741 39.3384 62.0278 39.3282 61.8827 39.3084L61.4104 39.247C60.8657 40.186 60.1585 41.0207 59.3216 41.7121C58.5022 42.3835 57.47 42.7402 56.411 42.7182ZM57.1329 30.7148C57.7739 30.2013 58.3491 29.6106 58.8454 28.9562C59.4118 28.2311 59.9313 27.4706 60.4006 26.6792C60.8844 25.8728 61.3106 25.0818 61.6908 24.3062C62.0288 23.6244 62.3225 22.9215 62.5701 22.2019C62.7421 21.7484 62.8481 21.2725 62.8849 20.7889C62.8922 20.7191 62.8802 20.6488 62.8504 20.5854C62.8415 20.569 62.8281 20.5556 62.8117 20.5467C62.7954 20.5378 62.7768 20.5339 62.7582 20.5354C62.5893 20.5354 62.2706 20.8349 61.7983 21.434C61.2206 22.1918 60.6959 22.9885 60.2278 23.8185C59.6518 24.8169 59.0809 25.9176 58.5152 27.1208C57.966 28.2829 57.504 29.4842 57.1329 30.7148ZM60.7769 38.2563C61.0115 37.7658 61.1905 37.2506 61.3106 36.7203C61.4387 36.1806 61.5031 35.6278 61.5026 35.0731C61.5291 34.4822 61.4269 33.8926 61.2031 33.3451C61.0034 32.9266 60.7577 32.7154 60.4658 32.7154C60.174 32.7154 59.8707 32.9304 59.6326 33.3605C59.3751 33.8593 59.2508 34.4161 59.2717 34.9771C59.2804 35.5892 59.3974 36.195 59.6172 36.7664C59.8272 37.3782 60.2353 37.9025 60.7769 38.2563Z" fill="#EDC454"/>
<path id="Vector_15" d="M79.0621 41.2398C78.7195 41.266 78.3756 41.2099 78.0591 41.0764C77.7425 40.9428 77.4624 40.7355 77.2421 40.4719C76.8352 39.935 76.6239 39.2752 76.643 38.6019C76.6614 37.9855 76.7516 37.3734 76.9118 36.7779C77.1036 35.9972 77.3395 35.228 77.6184 34.474C77.9004 33.6902 78.2419 32.929 78.6398 32.197C78.9714 31.5619 79.3887 30.9753 79.88 30.4537C80.0382 30.2606 80.2336 30.1013 80.4546 29.9852C80.6755 29.8691 80.9176 29.7986 81.1664 29.7779C81.3446 29.774 81.518 29.8355 81.654 29.9507C81.7252 30.0159 81.7805 30.0965 81.8158 30.1863C81.8511 30.2762 81.8653 30.3729 81.8575 30.4691C81.7889 30.9082 81.6237 31.3265 81.3737 31.694C81.0461 32.2597 80.6621 32.9087 80.2218 33.6408C79.778 34.3774 79.3928 35.1477 79.0698 35.9447C78.762 36.6746 78.5964 37.4566 78.5822 38.2486C78.5822 39.0012 78.7102 39.5042 78.9661 39.7577C79.1234 39.8944 79.3061 39.9987 79.5038 40.0646C79.7015 40.1305 79.9103 40.1567 80.1181 40.1416C80.8323 40.1416 81.5888 39.7845 82.399 39.0742C83.2092 38.3638 84.0578 37.1159 84.9563 35.3342L85.2404 35.649C84.7641 37.2462 83.8566 38.6811 82.6178 39.7961C81.6454 40.6902 80.3827 41.2029 79.0621 41.2398ZM82.8329 26.852C82.5168 26.8565 82.2062 26.7699 81.9382 26.6024C81.8131 26.5187 81.7119 26.4039 81.6446 26.2692C81.5772 26.1346 81.5461 25.9847 81.5542 25.8344C81.5688 25.5916 81.6477 25.3571 81.7826 25.1547C81.9175 24.9523 82.1037 24.7894 82.3222 24.6825C82.7768 24.3761 83.31 24.2068 83.8581 24.1948C84.1321 24.1786 84.4033 24.2572 84.6261 24.4175C84.7306 24.514 84.8109 24.634 84.8603 24.7674C84.9096 24.9009 84.9268 25.0441 84.9102 25.1855C84.8951 25.4134 84.8293 25.635 84.7177 25.8343C84.6061 26.0336 84.4515 26.2055 84.2651 26.3374C83.8678 26.6803 83.3575 26.8637 82.8329 26.852Z" fill="#EDC454"/>
</g>
<defs>
<clipPath id="clip0_705_83">
<rect width="86.02" height="43.4861" fill="white"/>
</clipPath>
</defs>
</svg>
